<svg xmlns="http://www.w3.org/2000/svg" viewBox="0 0 1024 1024"><rect width="1024" height="1024" rx="150" fill="#ffd000"/><circle cx="512" cy="430" r="350" fill="#161616" stroke="#ffd000" stroke-width="18"/><g fill="none" stroke="#ffd000" stroke-width="22" stroke-linecap="round" stroke-linejoin="round"><circle cx="370" cy="535" r="88" stroke="#aaa"/><circle cx="700" cy="535" r="88" stroke="#aaa"/><path d="M370 535l85-105 105 0 70 105M455 430l-45-65M560 430l55-65 95 0M455 430l105 105M615 365l55-45"/><path d="M285 440l-80 35M275 475l-105 35M270 510l-105 35"/></g><g fill="#202020" stroke="#ffd000" stroke-width="16"><path d="M445 365c-20-75 25-150 100-160 75-10 140 45 140 120 0 55-30 90-75 105l-70 5c-45-10-80-30-95-70z"/><path d="M490 315c-10 80 5 120 65 145l55-5c45-15 70-50 75-105-40 35-105 45-195-35z"/><path d="M405 415c35-70 110-95 180-50 25 16 45 40 55 70l-55 25-100-5-80-40z"/><rect x="265" y="300" width="150" height="185" rx="18"/></g><path d="M290 330h100v30H290z" fill="#ffd000"/><text x="340" y="410" text-anchor="middle" fill="#fff" font-family="Arial,Helvetica,sans-serif" font-size="34" font-weight="900">ENTREGA365</text><path d="M300 455h75" stroke="#ffd000" stroke-width="8"/><text x="512" y="675" text-anchor="middle" fill="#fff" font-family="Arial,Helvetica,sans-serif" font-size="92" font-weight="900" letter-spacing="3">ENTREGA</text><text x="512" y="760" text-anchor="middle" fill="#ffd000" font-family="Arial,Helvetica,sans-serif" font-size="108" font-weight="900">365</text><text x="512" y="820" text-anchor="middle" fill="#ffd000" font-family="Arial,Helvetica,sans-serif" font-size="27" font-weight="700" letter-spacing="5">ENTREGAS QUE MOVEM VOCÊ</text></svg>