<svg xmlns="http://www.w3.org/2000/svg" viewBox="0 0 1536 1536">
<defs><linearGradient id="y" x1="0" y1="0" x2="1" y2="1"><stop stop-color="#ffd21a"/><stop offset="1" stop-color="#f2a900"/></linearGradient><linearGradient id="g" x1="0" y1="0" x2="1" y2="1"><stop stop-color="#343434"/><stop offset="1" stop-color="#0b0b0b"/></linearGradient></defs>
<rect width="1536" height="1536" rx="190" fill="#090909"/>
<circle cx="768" cy="620" r="520" fill="#090909" stroke="url(#y)" stroke-width="18"/><circle cx="768" cy="620" r="475" fill="none" stroke="#f5b900" stroke-width="5"/>
<!-- delivery bag --> <path d="M300 430h245l55 330H245z" fill="url(#g)" stroke="#f8bf18" stroke-width="16"/><path d="M340 430v-52c0-38 30-68 68-68h29c38 0 68 30 68 68v52" fill="none" stroke="#bdbdbd" stroke-width="15"/><path d="M330 485h190" stroke="#f8bf18" stroke-width="18"/><text x="420" y="665" text-anchor="middle" fill="#ffd21a" font-family="Arial,sans-serif" font-size="34" font-weight="900">ENTREGA365</text>
<!-- wheels --> <circle cx="510" cy="920" r="118" fill="#0a0a0a" stroke="#9b9b9b" stroke-width="24"/><circle cx="1055" cy="920" r="118" fill="#0a0a0a" stroke="#9b9b9b" stroke-width="24"/>
<!-- motorcycle --> <path d="M510 920l180-230h220l145 230M690 690l-75-120M910 690l110-90 125 25M690 690l145 230M1020 600l75-75" fill="none" stroke="#f5bd13" stroke-width="30" stroke-linecap="round" stroke-linejoin="round"/>
<path d="M700 720c80-105 215-120 310-25l-65 70-145-8z" fill="url(#g)" stroke="#a9a9a9" stroke-width="18"/><path d="M775 555c5-100 70-160 150-160 95 0 145 70 125 155-12 55-47 90-98 108l-78-15c-55-17-87-43-99-88z" fill="url(#g)" stroke="#bdbdbd" stroke-width="20"/><path d="M840 470c45-35 125-37 170 5" fill="none" stroke="#f5bd13" stroke-width="14"/>
<!-- rider arms/legs --> <path d="M795 660l-70 125M950 675l105 75M800 785l-95 170M940 790l90 150" fill="none" stroke="#171717" stroke-width="65" stroke-linecap="round"/><path d="M795 660l-70 125M950 675l105 75" fill="none" stroke="#bdbdbd" stroke-width="12" stroke-linecap="round"/>
<!-- headlight and fairing --> <path d="M1010 700l125 55-35 105-135-48z" fill="#1a1a1a" stroke="#f5bd13" stroke-width="16"/><path d="M1055 742l70 20-30 58-67-20z" fill="#fff"/>
<!-- speed lines --> <path d="M250 800h190M220 855h190M205 910h170" stroke="#f5bd13" stroke-width="12" stroke-linecap="round"/>
<!-- wordmark --> <rect x="95" y="1080" width="1346" height="270" rx="75" fill="#090909" stroke="#f5bd13" stroke-width="14"/><text x="210" y="1260" fill="#fff" font-family="Arial,sans-serif" font-size="170" font-weight="900" font-style="italic">ENTREGA</text><text x="1010" y="1260" fill="#ffd21a" font-family="Arial,sans-serif" font-size="180" font-weight="900" font-style="italic">365</text><path d="M260 1390h1015" stroke="#f5bd13" stroke-width="9"/><text x="768" y="1440" text-anchor="middle" fill="#ffd21a" font-family="Arial,sans-serif" font-size="38" font-weight="800" letter-spacing="7">ENTREGAS QUE MOVEM VOCÊ</text></svg>