<svg xmlns="http://www.w3.org/2000/svg" viewBox="0 0 960 560"><defs><linearGradient id="g" x1="0" y1="0" x2="1" y2="1"><stop stop-color="#ffd21a"/><stop offset="1" stop-color="#f2a900"/></linearGradient></defs><g fill="none" stroke-linecap="round" stroke-linejoin="round"><path d="M350 55a180 180 0 0 1 245 255" stroke="url(#g)" stroke-width="22"/><path d="M250 245l75-10m-58 42l55-7m-40 40l38-5" stroke="url(#g)" stroke-width="15"/><path d="M350 225h105v92H350z" stroke="#18202a" stroke-width="18"/><path d="M350 225l52-35 53 35" stroke="#18202a" stroke-width="18"/><path d="M402 190v35" stroke="url(#g)" stroke-width="13"/><circle cx="420" cy="345" r="55" stroke="#18202a" stroke-width="18"/><circle cx="675" cy="345" r="55" stroke="#18202a" stroke-width="18"/><path d="M420 345h255M475 345l35-105h105l60 105M510 240l55-65h75l40 65M640 240l40 20" stroke="#18202a" stroke-width="18"/><circle cx="595" cy="118" r="38" fill="#18202a" stroke="#18202a" stroke-width="10"/><path d="M570 158l-35 75 65 45 50-70" stroke="#18202a" stroke-width="35"/><path d="M605 105h35" stroke="url(#g)" stroke-width="12"/></g><text x="480" y="450" text-anchor="middle" font-family="Arial,Helvetica,sans-serif" font-size="88" font-weight="900" font-style="italic" fill="#18202a">ENTREGA<tspan fill="#f5b400">365</tspan></text><g stroke="#f5b400" stroke-width="7"><path d="M205 492h75M680 492h75"/></g><text x="480" y="505" text-anchor="middle" font-family="Arial,Helvetica,sans-serif" font-size="22" font-weight="700" letter-spacing="5" fill="#18202a">CONTROLE SUAS ENTREGAS</text></svg>